<?xml version="1.0" encoding="UTF-8"?>
<svg width="183px" height="48px" viewBox="0 0 183 48" version="1.1" xmlns="http://www.w3.org/2000/svg" xmlns:xlink="http://www.w3.org/1999/xlink">
    <!-- Generator: Sketch 53.2 (72643) - https://sketchapp.com -->
    <title>Logo/light</title>
    <desc>Created with Sketch.</desc>
    <defs>
        <linearGradient x1="65.5359566%" y1="25.5498007%" x2="34.3962008%" y2="73.958738%" id="linearGradient-1">
            <stop stop-color="#25A2AC" offset="25%"></stop>
            <stop stop-color="#FFFFFF" offset="90%"></stop>
        </linearGradient>
        <path d="M2.42969921,4.10763636 C2.75803694,2.82375758 4.70102375,1.26060606 5.47744591,1.05115152 L5.63195778,1.05115152 C5.65522863,1.05128028 5.67799061,1.05800269 5.69762533,1.07054545 L5.69762533,1.07054545 C5.28816887,0.830060606 3.31814248,0 2.9318628,0 L2.88937203,0 L2.88937203,0 C2.45673879,0.159030303 0.830501319,1.48945455 0.00386279683,3.00606061 L2.43356201,4.08824242" id="path-2"></path>
        <linearGradient x1="61.3050847%" y1="32.479309%" x2="34.1410229%" y2="69.306149%" id="linearGradient-4">
            <stop stop-color="#25A2AC" offset="0%"></stop>
            <stop stop-color="#FFFFFF" offset="100%"></stop>
        </linearGradient>
        <linearGradient x1="78.3068282%" y1="75.8542141%" x2="47.0568903%" y2="44.6013667%" id="linearGradient-5">
            <stop stop-color="#FFFFFF" offset="0%"></stop>
            <stop stop-color="#9AD4D8" offset="31%"></stop>
            <stop stop-color="#46B0B9" offset="58%"></stop>
            <stop stop-color="#25A2AC" offset="100%"></stop>
        </linearGradient>
        <path d="M2.92027441,5.11224242 L3.71601055,3.97187879 C2.92027441,3.77406061 1.97388918,2.13721212 1.90435884,1.00460606 C1.87005533,0.744066358 1.9187322,0.479308463 2.04341953,0.248242424 C2.04268281,0.237912217 2.04268281,0.227542329 2.04341953,0.217212121 C1.58566723,0.682335416 -0.0309023747,2.33115152 0.185414248,2.98278788 L0.185414248,3.00606061 C0.559539358,3.7119235 0.771886893,4.11477683 1.30004625,4.60595333 L1.76529815,4.86787879 C2.13133014,4.96886298 2.20628858,5.00175918 2.58339213,5.04536969 L2.92027441,5.11224242 Z" id="path-6"></path>
        <linearGradient x1="71.5907528%" y1="84.224951%" x2="41.1238598%" y2="40.7283763%" id="linearGradient-8">
            <stop stop-color="#FFFFFF" offset="0%"></stop>
            <stop stop-color="#A3E6EC" offset="37.5356843%"></stop>
            <stop stop-color="#4ED3DE" offset="58.2148887%"></stop>
            <stop stop-color="#25A2AC" offset="100%"></stop>
        </linearGradient>
        <linearGradient x1="23.6893402%" y1="75.2671756%" x2="65.0236323%" y2="30.3816794%" id="linearGradient-9">
            <stop stop-color="#FFFFFF" offset="0%"></stop>
            <stop stop-color="#9AD4D8" offset="31%"></stop>
            <stop stop-color="#46B0B9" offset="58%"></stop>
            <stop stop-color="#25A2AC" offset="70%"></stop>
        </linearGradient>
        <path d="M0.78757843,5.11224242 L0.023176781,3.97187879 C0.818912929,3.77406061 1.76143536,2.13721212 1.8348285,1.00460606 C1.85823661,0.759795557 1.80704904,0.513619088 1.68804222,0.298666667 L1.66486544,0.267636364 C1.62237467,0.209454545 1.56056992,0.135757576 1.48717678,0.0543030303 C2.13612665,0.740848485 3.7305957,2.27069961 3.51814187,2.92233598 L3.22183194,3.5838008 C2.9744024,4.21447246 2.18675166,4.94277024 1.59061351,4.93477774 C1.50124483,4.98119304 1.23356647,5.04034794 0.78757843,5.11224242 Z" id="path-10"></path>
        <linearGradient x1="26.5643317%" y1="79.1643082%" x2="58.8761402%" y2="40.7283763%" id="linearGradient-12">
            <stop stop-color="#FFFFFF" offset="0%"></stop>
            <stop stop-color="#84D8DE" offset="26.2510557%"></stop>
            <stop stop-color="#48C1CB" offset="64.7119722%"></stop>
            <stop stop-color="#25A2AC" offset="100%"></stop>
        </linearGradient>
        <linearGradient x1="34.1479973%" y1="25.5040444%" x2="65.3088934%" y2="73.5209922%" id="linearGradient-13">
            <stop stop-color="#25A2AC" offset="25%"></stop>
            <stop stop-color="#FFFFFF" offset="90%"></stop>
        </linearGradient>
        <path d="M3.28337731,4.096 C2.95117678,2.81212121 1.00818997,1.2489697 0.235630607,1.03951515 L0.0811187335,1.03951515 C0.0577841493,1.03919286 0.0348963063,1.04595245 0.0154511873,1.05890909 L0.0154511873,1.05890909 C0.424907652,0.845575758 2.39107124,0.0271515152 2.78121372,0.0271515152 L2.81984169,0.0271515152 L2.81984169,0.0271515152 C3.25633773,0.186181818 4.8825752,1.51660606 5.70535092,3.03321212 L3.28337731,4.096" id="path-14"></path>
        <linearGradient x1="38.6440678%" y1="32.479309%" x2="64.4706592%" y2="72.9191014%" id="linearGradient-16">
            <stop stop-color="#25A2AC" offset="0%"></stop>
            <stop stop-color="#FFFFFF" offset="100%"></stop>
        </linearGradient>
    </defs>
    <g id="Symbols" stroke="none" stroke-width="1" fill="none" fill-rule="evenodd">
        <g id="Menu/Large/Light" transform="translate(0.000000, -6.000000)">
            <g id="Logo/light" transform="translate(0.000000, 6.000000)">
                <g id="Patternfly-logo-lig" transform="translate(0.000000, -0.387879)">
                    <path d="M62.7318206,47.1311515 C63.6498253,47.1319347 64.5622585,46.9879588 65.4357784,46.7044848 L65.4126016,45.4244848 C64.5940347,45.7173728 63.7321235,45.8694874 62.8631557,45.8744242 C60.2016887,45.8744242 60.081942,44.1716364 60.081942,41.1888485 C60.081942,38.0858182 60.4682216,36.425697 62.8901953,36.425697 C63.671401,36.4478916 64.4481674,36.5518892 65.2078734,36.736 L65.2310501,35.4792727 C64.4266164,35.2897589 63.6043303,35.1870352 62.7781741,35.1728485 C58.9578681,35.1728485 58.5290976,37.888 58.5290976,41.4487273 C58.5290976,44.5517576 58.8612982,47.1311515 62.7511346,47.1311515 L62.7318206,47.1311515 Z M71.4617414,45.8744242 C69.0320422,45.8744242 68.9122955,43.8846061 68.9122955,41.3517576 C68.9122955,38.6366061 69.0088654,36.425697 71.508095,36.425697 C73.9339314,36.425697 74.0073245,38.5357576 74.0073245,41.0220606 C74.0073245,43.8846061 73.8875778,45.8744242 71.4617414,45.8744242 Z M71.4115251,47.1311515 C75.139124,47.1311515 75.5408549,44.4780606 75.5408549,40.9755152 C75.5408549,37.8259394 75.2318311,35.1573333 71.5312718,35.1573333 C67.8307124,35.1573333 67.3555884,37.833697 67.3555884,41.3633939 C67.3555884,44.4664242 67.7109657,47.1195152 71.4115251,47.1195152 L71.4115251,47.1311515 Z M81.033752,47.1078788 C81.471448,47.1042614 81.9071545,47.0482705 82.3316517,46.9410909 L82.2582586,45.7347879 C81.957389,45.8095038 81.6488361,45.848558 81.3389129,45.8511515 C80.3268602,45.8511515 79.7126755,45.2615758 79.7126755,44.1212121 L79.7126755,31.0768485 L78.1675567,31.0768485 L78.1675567,44.1716364 C78.1675567,46.1110303 79.2298259,47.1078788 81.0221636,47.1078788 L81.033752,47.1078788 Z M86.6695726,47.1078788 C87.1072686,47.1042614 87.5429751,47.0482705 87.9674723,46.9410909 L87.8940792,45.7347879 C87.5932095,45.8095038 87.2846567,45.848558 86.9747335,45.8511515 C85.9626807,45.8511515 85.348496,45.2615758 85.348496,44.1212121 L85.348496,31.0768485 L83.8033773,31.0768485 L83.8033773,44.1716364 C83.8033773,46.1110303 84.8656464,47.1078788 86.6579842,47.1078788 L86.6695726,47.1078788 Z M93.3174459,47.1311515 C94.2043541,47.1274256 95.0862089,46.9968201 95.9364222,46.7432727 L95.8900686,45.513697 C95.0918678,45.7457237 94.2677775,45.8760389 93.4371926,45.9015758 C91.8341319,45.9015758 91.1504169,45.2848485 90.8877467,43.8652121 L97.0450449,39.9864242 C97.0836815,39.6959244 97.0991818,39.402793 97.0913984,39.1098182 C97.0913984,36.553697 96.0523061,35.1806061 93.2942691,35.1806061 C89.5473562,35.1806061 89.1688021,37.76 89.1688021,41.1966061 C89.1688021,44.5323636 89.5203166,47.1389091 93.3174459,47.1389091 L93.3174459,47.1311515 Z M90.7255092,41.1888485 C90.7255092,38.2758788 90.8413931,36.425697 93.3406227,36.425697 C95.1097836,36.425697 95.5810449,37.376 95.5810449,39.1408485 L95.5810449,39.6179394 L90.748686,42.6472727 C90.7255092,42.2206061 90.7255092,41.7473939 90.7255092,41.2043636 L90.7255092,41.1888485 Z M103.472739,47.1311515 C104.390744,47.1319347 105.303177,46.9879588 106.176697,46.7044848 L106.15352,45.4244848 C105.336176,45.7169436 104.475607,45.8690517 103.607937,45.8744242 C100.942607,45.8744242 100.82286,44.1716364 100.82286,41.1888485 C100.82286,38.0858182 101.20914,36.425697 103.631113,36.425697 C104.412319,36.4478916 105.189086,36.5518892 105.948792,36.736 L105.971968,35.4792727 C105.167535,35.2897589 104.345248,35.1870352 103.519092,35.1728485 C99.6987863,35.1728485 99.2700158,37.888 99.2700158,41.4487273 C99.2700158,44.5517576 99.6022164,47.1311515 103.492053,47.1311515 L103.472739,47.1311515 Z M111.630966,47.1078788 C112.270864,47.101285 112.906684,47.0046685 113.519873,46.8208485 L113.44648,45.6145455 C112.945568,45.7681282 112.425094,45.8478291 111.901361,45.8511515 C110.700032,45.8511515 109.900433,45.2809697 109.900433,43.9815758 L109.900433,36.6118788 L113.009984,36.6118788 L113.033161,35.4055758 L109.900433,35.4055758 L109.900433,32.4964848 L108.355314,32.4964848 L108.355314,44.0281212 C108.355314,46.1110303 109.676391,47.1078788 111.607789,47.1078788 L111.630966,47.1078788 Z M115.783472,46.9410909 L117.328591,46.9410909 L117.328591,35.3861818 L115.783472,35.3861818 L115.783472,46.9333333 L115.783472,46.9410909 Z M115.663726,33.4196364 L117.40971,33.4196364 L117.40971,31.6935758 L115.663726,31.6935758 L115.663726,33.4196364 L115.663726,33.4196364 Z M124.362744,45.8744242 C121.936908,45.8744242 121.817161,43.8846061 121.817161,41.3517576 C121.817161,38.6366061 121.913731,36.425697 124.409098,36.425697 C126.838797,36.425697 126.91219,38.5357576 126.91219,41.0220606 C126.91219,43.8846061 126.792443,45.8744242 124.362744,45.8744242 Z M124.316391,47.1311515 C128.043989,47.1311515 128.441858,44.4780606 128.441858,40.9755152 C128.441858,37.8259394 128.136697,35.1573333 124.436137,35.1573333 C120.735578,35.1573333 120.260454,37.833697 120.260454,41.3633939 C120.260454,44.4664242 120.615831,47.1195152 124.316391,47.1195152 L124.316391,47.1311515 Z M131.064697,46.9333333 L132.609815,46.9333333 L132.609815,38.0858182 L134.023599,37.1626667 C134.556017,36.7838872 135.187032,36.5695324 135.839113,36.5459394 C136.970913,36.5459394 137.492391,37.2557576 137.492391,38.345697 L137.492391,46.9333333 L139.037509,46.9333333 L139.037509,38.2758788 C139.037509,36.2860606 138.00228,35.1961212 136.186765,35.1961212 C135.315164,35.1876559 134.46374,35.4594998 133.757066,35.9718788 L132.532559,36.7786667 L132.435989,35.382303 L131.064697,35.382303 L131.064697,46.9333333 Z" id="Shape" fill="#25A2AC"></path>
                    <path d="M58.5097836,31.7595152 L60.8081478,31.7595152 L60.8081478,24.9018182 L63.9563272,24.9018182 C69.3642427,24.9018182 70.499905,21.174303 70.499905,15.7750303 C70.499905,10.057697 69.2290449,7.28824242 65.937942,7.28824242 C64.7165383,7.30658765 63.5306282,7.7035275 62.5425435,8.42472727 L60.7038522,9.6310303 L60.5609288,7.57139394 L58.5097836,7.57139394 L58.5097836,31.7595152 Z M60.8081478,23.094303 L60.8081478,11.5859394 L62.932686,10.2012121 C63.8867968,9.59612121 64.5589235,9.27806061 65.4087388,9.27806061 C67.4251187,9.27806061 68.1667757,11.0506667 68.1667757,15.9534545 C68.1667757,20.3209697 67.5989446,23.094303 63.9563272,23.094303 L60.8081478,23.094303 Z M78.2100475,25.033697 C80.8290237,25.033697 85.1090026,24.8901818 85.1090026,24.8901818 C85.1090026,24.8901818 85.2132982,21.5195152 85.2132982,18.1798788 C85.2132982,16.2404848 85.178533,13.4904242 85.0394723,11.5393939 C84.8617836,8.94448485 83.3050765,7.24169697 79.2723166,7.24169697 C77.9158782,7.25662821 76.5645465,7.41129697 75.2395567,7.70327273 L75.3090871,9.58448485 C76.5124634,9.27848973 77.7489715,9.12344922 78.9903325,9.12290909 C81.7831346,9.12290909 82.8531293,10.0809697 82.8531293,11.9272727 L76.1318628,16.1551515 C74.7528443,17.0433939 73.5515145,18.3932121 73.5515145,20.3830303 L73.5515145,21.0579394 C73.5515145,23.3309091 75.2472823,25.033697 78.2177731,25.033697 L78.2100475,25.033697 Z M78.5306596,23.222303 C76.5992612,23.222303 75.6992296,22.1595152 75.6992296,20.9144242 L75.6992296,20.1386667 C75.6992296,18.7888485 76.5490449,17.9355152 77.325467,17.4235152 L82.914934,13.9636364 C82.914934,13.9636364 83.0230923,16.5236364 83.0230923,18.5832727 C83.0230923,20.6429091 82.914934,23.1292121 82.914934,23.1292121 C82.914934,23.1292121 80.4388813,23.2339394 78.5306596,23.2339394 L78.5306596,23.222303 Z M94.4453826,25.161697 C95.4041323,25.1495342 96.3567395,25.0059863 97.2768127,24.7350303 L97.1686544,22.9236364 C96.4168791,23.1519763 95.63637,23.2708436 94.8509763,23.2766061 C93.0470501,23.2766061 91.8457203,22.4271515 91.8457203,20.4722424 L91.8457203,9.38278788 L96.5312929,9.38278788 L96.566058,7.57139394 L91.8650343,7.57139394 L91.8650343,3.23878788 L89.5473562,3.23878788 L89.5473562,20.534303 C89.5473562,23.6606061 91.528971,25.1539394 94.4299314,25.1539394 L94.4453826,25.161697 Z M105.056485,25.161697 C106.014002,25.1499585 106.965391,25.0063984 107.884053,24.7350303 L107.772032,22.9158788 C107.026458,23.1423931 106.252583,23.2612406 105.473668,23.2688485 C103.669741,23.2688485 102.468412,22.4193939 102.468412,20.4644848 L102.468412,9.38278788 L107.13467,9.38278788 L107.169435,7.57139394 L102.476137,7.57139394 L102.476137,3.23878788 L100.158459,3.23878788 L100.158459,20.534303 C100.158459,23.6606061 102.140074,25.1539394 105.041034,25.1539394 L105.056485,25.161697 Z M116.586934,25.1966061 C117.918337,25.1917246 119.242313,24.9971381 120.519261,24.6186667 L120.449731,22.7723636 C119.253096,23.1187915 118.017312,23.310401 116.772348,23.3425455 C114.365826,23.3425455 113.338322,22.4193939 112.952042,20.2860606 L122.184127,14.4678788 C122.241927,14.0321146 122.265177,13.5924298 122.253657,13.1529697 C122.253657,9.31684848 120.708538,7.25721212 116.559894,7.25721212 C110.935662,7.25721212 110.37942,11.136 110.37942,16.2792727 C110.37942,21.2867879 110.912485,25.2004848 116.606248,25.2004848 L116.586934,25.1966061 Z M112.697098,16.2909091 C112.697098,11.9195152 112.870923,9.15006061 116.621699,9.15006061 C119.275441,9.15006061 119.982332,10.569697 119.982332,13.1995152 L119.982332,13.9093333 L112.731863,18.4397576 C112.697098,17.7997576 112.697098,17.0899394 112.697098,16.2753939 L112.697098,16.2909091 Z M125.888549,24.9018182 L128.206227,24.9018182 L128.206227,11.9389091 L130.75181,10.2361212 C131.522303,9.69938714 132.433244,9.40257794 133.370786,9.38278788 C133.773416,9.38790287 134.175052,9.42421271 134.572116,9.49139394 L134.645509,7.50157576 C134.242548,7.41795706 133.832458,7.37379059 133.421003,7.36969697 C132.338988,7.40382524 131.292077,7.76324843 130.415747,8.40145455 L128.098069,10.0693333 L127.955145,7.5830303 L125.888549,7.5830303 L125.888549,24.9018182 Z M137.09066,24.9018182 L139.408338,24.9018182 L139.408338,11.6363636 L141.529013,10.2516364 C142.323454,9.67858208 143.267275,9.35098881 144.244559,9.30909091 C145.94419,9.30909091 146.720612,10.3757576 146.720612,12.0242424 L146.720612,24.9018182 L149.03829,24.9018182 L149.03829,11.904 C149.03829,8.92121212 147.493172,7.28824242 144.758311,7.28824242 C143.451711,7.27690985 142.175602,7.68456358 141.115694,8.45187879 L139.277003,9.65818182 L139.137942,7.56363636 L137.082934,7.56363636 L137.082934,24.9018182 L137.09066,24.9018182 Z M166.803293,25.1539394 C167.477955,25.1512516 168.149815,25.0665959 168.804222,24.9018182 L168.696063,23.094303 C168.225091,23.2067826 167.743175,23.266621 167.259103,23.2727273 C165.771926,23.2727273 164.85258,22.3844848 164.85258,20.681697 L164.85258,1.55151515 C163.090176,1.0086759 161.260776,0.71622238 159.417625,0.682666667 C155.068116,0.682666667 153.476644,2.45915152 153.476644,5.79490909 L153.476644,24.9018182 L155.775008,24.9018182 L155.775008,9.38666667 L160.024084,9.38666667 L160.024084,7.57139394 L155.775008,7.57139394 L155.775008,5.76 C155.775008,3.66545455 156.590058,2.56387879 159.452391,2.56387879 C160.502557,2.55702197 161.549148,2.68740951 162.565805,2.95175758 L162.565805,20.7476364 C162.565805,23.6606061 164.192042,25.1539394 166.814881,25.1539394 L166.803293,25.1539394 Z M176.71523,32.0775758 C181.099504,32.0775758 182.97296,30.0877576 182.97296,26.752 L182.97296,7.57139394 L180.674596,7.57139394 L180.674596,20.7592727 L178.658216,22.1827879 C177.812264,22.7141818 177.066744,23.1408485 175.954259,23.1408485 C174.293256,23.1408485 173.37391,22.1827879 173.37391,20.5459394 L173.37391,7.57139394 L171.075546,7.57139394 L171.075546,20.608 C171.075546,23.2688485 172.701784,25.0802424 175.494586,25.0802424 C176.854038,25.067183 178.171678,24.6066204 179.245361,23.7692121 L180.659145,22.7723636 L180.659145,26.8567273 C180.659145,28.9900606 179.562111,30.2312727 176.626385,30.2312727 C175.322518,30.2064895 174.026051,30.0281383 172.763588,29.6998788 L172.694058,31.5810909 C174.001095,31.9122524 175.344051,32.0790254 176.692053,32.0775758 L176.71523,32.0775758 Z" id="Shape" fill="#FFFFFF" fill-rule="nonzero"></path>
                    <path d="M23.8064169,48.201697 C33.4371274,48.2032659 42.1204049,42.3790567 45.8070009,33.4450567 C49.4935969,24.5110566 47.457444,14.2267985 40.6480557,7.38811143 C33.8386673,0.549424399 23.5971385,-1.49682621 14.6993725,2.20358188 C5.80160657,5.90398997 1.26736904e-07,14.622269 7.10542736e-15,24.2928485 C-1.73030419e-07,37.4958263 10.6578711,48.199555 23.8064169,48.201697" id="Path" fill="#25A2AC"></path>
                    <path d="M37.7395251,11.2484848 C37.2025963,11.1010909 34.6183852,11.3454545 32.4706702,11.9350303 C30.4697414,12.4819394 28.3374776,17.1248485 23.8064169,24.6419394 C19.2753562,17.1326061 17.1430923,12.489697 15.1460264,11.9427879 C12.9983113,11.3532121 10.4295515,11.1088485 9.8771715,11.2484848 C9.32479156,11.3881212 6.2229657,14.0218182 6.48949868,16.1784242 C6.79852243,18.6647273 8.74923483,20.2472727 15.6636412,25.4875152 C16.5868496,26.185697 17.2435251,26.6317576 17.2435251,26.9265455 C17.2435251,27.1321212 17.0310712,27.3144242 16.1310396,28.0669091 C14.678628,29.2770909 11.8858259,31.4181818 11.1287177,32.1939394 C9.67630607,33.6795152 10.7733404,38.0935758 12.4961478,38.6598788 C13.4386702,38.9701818 16.7761266,39.2649697 17.3439578,38.6598788 C18.5027968,37.4109091 21.902058,31.8564848 23.8064169,28.8349091 C25.7146385,31.8564848 29.1023113,37.4109091 30.2727388,38.6598788 C30.8405699,39.2649697 34.1741636,38.9701818 35.1205488,38.6598788 C36.8394934,38.0935758 37.9403905,33.6795152 36.4879789,32.1939394 C35.7154195,31.4181818 32.9535198,29.2654545 31.466343,28.0436364 C30.5701741,27.2989091 30.3538575,27.1088485 30.3538575,26.9032727 C30.3538575,26.6084848 31.010533,26.1624242 31.9376042,25.4642424 C38.8520106,20.2433939 40.7988602,18.6608485 41.1078839,16.1551515 C41.3782797,13.9985455 38.2571398,11.3726061 37.7240739,11.2252121 M22.5085172,26.7636364 C20.4496464,29.9830303 15.3584802,37.814303 14.5434301,37.7755152 C13.5197889,37.7212121 12.1446332,34.9905455 12.7472296,34.0286061 C13.3923166,33.0084848 19.773657,28.4043636 19.773657,26.7403636 C19.773657,26.0926061 19.2521794,25.5767273 18.0160844,24.5527273 C10.7192612,18.6181818 9.34024274,17.2218182 9.34024274,15.7129697 C9.34024274,14.2933333 11.9051398,12.2763636 12.5927177,12.2763636 C13.3421003,12.2763636 19.9899736,22.7490909 22.5085172,26.7558788 M38.272591,15.7129697 C38.272591,17.2218182 36.8974354,18.6104242 29.5890237,24.5527273 C28.3529288,25.5612121 27.835314,26.1042424 27.835314,26.7403636 C27.835314,28.4043636 34.2127916,33.0084848 34.8617414,34.0286061 C35.4720633,34.9905455 34.0891821,37.7212121 33.0732665,37.7677576 C32.2582164,37.8065455 27.1631873,29.9752727 25.1081794,26.7636364 C27.6228602,22.7568485 34.2745963,12.2841212 35.0239789,12.2841212 C35.7076939,12.2841212 38.272591,14.3010909 38.272591,15.7207273" id="Shape" fill="#FFFFFF" fill-rule="nonzero"></path>
                    <g id="Gradient-4" transform="translate(6.960760, 11.248485)">
                        <mask id="mask-3" fill="white">
                            <use xlink:href="#path-2"></use>
                        </mask>
                        <use id="Path" fill="url(#linearGradient-1)" fill-rule="nonzero" xlink:href="#path-2"></use>
                        <rect id="Rectangle" fill="url(#linearGradient-4)" fill-rule="nonzero" mask="url(#mask-3)" x="0" y="0.0116363636" width="5.69762533" height="4.096"></rect>
                    </g>
                    <g id="Gradient-3" transform="translate(10.703810, 33.780364)">
                        <mask id="mask-7" fill="white">
                            <use xlink:href="#path-6"></use>
                        </mask>
                        <use id="Path" fill="url(#linearGradient-5)" fill-rule="nonzero" xlink:href="#path-6"></use>
                        <rect id="Rectangle" fill="url(#linearGradient-8)" fill-rule="nonzero" mask="url(#mask-7)" x="-8.8817842e-16" y="3.55271368e-15" width="3.71601055" height="5.11224242"></rect>
                    </g>
                    <g id="Gradient-2" transform="translate(33.196876, 33.780364)">
                        <mask id="mask-11" fill="white">
                            <use xlink:href="#path-10"></use>
                        </mask>
                        <use id="Path" fill="url(#linearGradient-9)" fill-rule="nonzero" xlink:href="#path-10"></use>
                        <rect id="Rectangle" fill="url(#linearGradient-12)" fill-rule="nonzero" mask="url(#mask-11)" x="2.66453526e-15" y="3.55271368e-15" width="3.71601055" height="5.11224242"></rect>
                    </g>
                    <g id="Gradient-1" transform="translate(34.958311, 11.260121)">
                        <mask id="mask-15" fill="white">
                            <use xlink:href="#path-14"></use>
                        </mask>
                        <use id="Path" fill="url(#linearGradient-13)" fill-rule="nonzero" xlink:href="#path-14"></use>
                        <rect id="Rectangle" fill="url(#linearGradient-16)" fill-rule="nonzero" mask="url(#mask-15)" x="0" y="8.8817842e-16" width="5.69762533" height="4.096"></rect>
                    </g>
                </g>
            </g>
        </g>
    </g>
</svg>